<svg width="20" height="18" viewBox="0 0 20 18" fill="none" xmlns="http://www.w3.org/2000/svg" class="svg-icon"><path class="fill-dark" d="M9.16644 18C4.11242 18 0 13.9624 0 9.00008C0 4.03779 4.11242 0 9.16644 0C10.9239 0 12.6337 0.49169 14.1112 1.42278C14.4013 1.60616 14.4863 1.98578 14.2995 2.27133C14.1121 2.55688 13.7262 2.63942 13.4354 2.4562C12.1604 1.65185 10.6839 1.22728 9.16644 1.22728C4.80149 1.22728 1.24996 4.71435 1.24996 9.00008C1.24996 13.2857 4.80149 16.7727 9.16644 16.7727C13.5312 16.7727 17.0828 13.2857 17.0828 9.00008C17.0828 8.74389 17.0702 8.49026 17.0461 8.24082C17.0129 7.90284 17.2645 7.60336 17.6078 7.5707C17.9528 7.53954 18.2569 7.78508 18.2903 8.12217C18.3185 8.41101 18.3327 8.70389 18.3327 9.00008C18.3327 13.9624 14.2205 18 9.16644 18Z" fill="#0C1310"></path><path class="fill-dark" d="M10.2086 11.0454C10.0487 11.0454 9.88857 10.9856 9.76697 10.8655L6.01708 7.18366C5.77295 6.94381 5.77295 6.55519 6.01708 6.31549C6.26121 6.07579 6.65701 6.07579 6.90115 6.31549L10.2095 9.56376L18.9333 0.998137C19.1776 0.758434 19.5734 0.758434 19.8175 0.998137C20.0616 1.23784 20.0616 1.62646 19.8175 1.86616L10.6511 10.8662C10.5285 10.9856 10.3686 11.0454 10.2086 11.0454Z" fill="#0C1310"></path></svg>