<svg width="19" height="21" viewBox="0 0 19 21" fill="none" xmlns="http://www.w3.org/2000/svg" class="svg-icon"><path class="stroke-dark" d="M17.3345 6.17869C16.9049 5.16803 16.2881 4.26066 15.505 3.47869C14.7219 2.7041 13.814 2.0918 12.8022 1.66393C11.7557 1.22131 10.6469 1 9.50339 1C8.35991 1 7.25106 1.22131 6.2046 1.66393C5.19279 2.0918 4.28493 2.69672 3.50182 3.47869C2.7187 4.26066 2.10192 5.16803 1.67224 6.17869C1.22871 7.22623 1 8.34754 1 9.49836C1 11.5123 1.70688 13.4451 3.00283 14.9795L2.3098 19L5.99669 17.2516C7.0986 17.7533 8.26981 18.0041 9.49646 18.0041C10.6399 18.0041 11.7488 17.7828 12.7952 17.3402C13.8071 16.9123 14.7149 16.3074 15.498 15.5254C16.2811 14.7434 16.8979 13.8361 17.3276 12.8254C17.7711 11.7779 17.9998 10.6566 17.9998 9.50574C18.0068 8.34754 17.7781 7.23361 17.3345 6.17869Z" stroke="#0C1310" stroke-width="1.2"></path><path class="stroke-dark" d="M13.066 11.4423C12.6864 11.2505 12.4091 11.1325 12.212 11.0587C12.0879 11.0144 11.796 10.8816 11.6938 10.9628C11.3726 11.2284 11.0296 11.9808 10.6646 12.121C9.75953 11.9439 8.92015 11.3169 8.26325 10.6751C7.97129 10.3948 7.43116 9.59804 7.31438 9.3841C7.29248 9.16279 7.68661 8.86771 7.7742 8.69804C8.22674 8.18164 7.8837 7.85705 7.82531 7.64312C7.72312 7.42181 7.54795 7.02345 7.39467 6.69886C7.26329 6.48492 7.23407 6.16771 7.0005 6.04968C6.00784 5.53328 5.43855 6.56607 5.20498 7.10459C3.79627 10.5349 12.2631 17.0636 13.9856 12.5636C14.0732 12.1726 14.0367 12.0251 13.9053 11.848C13.6426 11.6636 13.336 11.5825 13.066 11.4423Z" stroke="#0C1310" stroke-width="1.2"></path></svg>